<?xml version="1.0" encoding="utf-8"?>
<svg version="1.1" x="0px" y="0px" viewBox="15.3 20.4 69.4 61.2" style="enable-background:new 0 0 100 100;" xmlns="http://www.w3.org/2000/svg">
  <style type="text/css">
	.st0{fill:#231F20;}
	.st1{fill:#FFFFFF;}
	.st2{fill:none;stroke:#FFFFFF;stroke-miterlimit:10;}
	.st3{fill:#FFFFFF;stroke:#FFFFFF;stroke-linecap:round;stroke-linejoin:round;stroke-miterlimit:10;}
</style>
  <g>
    <path d="M39.5,81.6c-1.4,0-2.6-0.8-3.4-1.5c-0.5,0.4-1.7,1.1-3.7,1.1c-2.1,0-3.1-1.3-3.4-2.3c-0.7,0.3-2,0.6-3.6-0.2   c-1.1-0.6-1.3-2.5-0.7-6.2c0.7-4.4,1-6.3,1.1-6.9c-0.9-1-4.7-6-4.7-16.8C22,33,33.2,22.1,48.1,22.1c14.5,0,26.4,11.8,26.4,26.2   c1,8.8-5.3,16-6.4,17.2c0.2,1.5,1.1,9.2-1.7,14.3c0,0.1-0.1,0.2-0.2,0.2c-1.7,0.9-3.5-0.2-4.2-0.7c-0.6,0.5-1.9,1.3-3.5,1.4   c-1.6,0.1-3-1-3.6-1.6c-0.6,0.5-1.9,1.5-3.2,1.4c-0.6,0-1.1-0.3-1.5-0.7c-0.5-0.6-0.7-1.4-0.6-2.2c0.2-1.1,1-2.3,1.8-3.3   c-3.5,1.3-7.2,1-11-0.7c1,1.6,2.3,4.1,2.1,5.8c-0.1,0.6-0.4,1.1-0.9,1.5C40.9,81.4,40.2,81.6,39.5,81.6z M36.1,78.9   c0.1,0,0.3,0.1,0.4,0.2c0.1,0.1,2.5,2.5,4.6,1c0.3-0.2,0.4-0.5,0.5-0.8c0.3-1.9-2.1-5.5-3.1-6.7c-0.1-0.2-0.1-0.5,0-0.6   c0.2-0.2,0.4-0.2,0.6-0.1c5.3,3.1,10.3,3.1,15.1,0c0.2-0.1,0.5-0.1,0.7,0.1c0.2,0.2,0.1,0.5-0.1,0.7c0,0-3.8,2.8-4.2,5.1   c-0.1,0.5,0,1,0.4,1.4c0.2,0.2,0.5,0.4,0.8,0.4c1.1,0,2.4-1,2.8-1.5c0.1-0.1,0.2-0.1,0.4-0.1c0.1,0,0.3,0.1,0.4,0.2   c0,0,1.4,1.6,3.1,1.6c1.8-0.1,3.2-1.4,3.2-1.4c0.2-0.2,0.5-0.2,0.7,0c0,0,1.8,1.6,3.3,0.9c2.7-5.2,1.5-13.7,1.5-13.8   c0-0.2,0-0.3,0.1-0.4c0.1-0.1,7.3-7.6,6.3-16.6c0,0,0,0,0-0.1c0-13.9-11.4-25.3-25.4-25.3C33.7,23.1,23,33.6,22,48.8   c0,11.6,4.6,16.3,4.6,16.3c0.1,0.1,0.2,0.3,0.1,0.5c0,0-0.3,1.7-1.2,7.1c-0.7,4.3,0,5,0.2,5.2c1.9,1,3.1,0,3.1-0.1   c0.1-0.1,0.3-0.2,0.5-0.1c0.2,0.1,0.3,0.2,0.3,0.4c0,0.2,0.3,2.2,2.6,2.2c2.5,0,3.2-1,3.3-1.1C35.7,79,35.9,78.9,36.1,78.9   C36,78.9,36.1,78.9,36.1,78.9z"/>
    <path d="M34.9,26.2c0,0-3-5.8-11-3.6c-8.6,4.7-7.6,14.3-7.6,14.3c0.2,5,0.6,9.6,1.4,13c0,0-0.5,3.6,0.8,3.6c1.3,0,3.2-6.8,3.2-6.8   C20.6,45.3,26.1,28.7,34.9,26.2z"/>
    <circle cx="31.4" cy="45.1" r="3"/>
    <circle cx="53.6" cy="45.1" r="3"/>
    <path d="M46.9,52.3c0,3-5.4,5.4-5.4,5.4s-5.4-2.4-5.4-5.4c0-3,5.4-2.7,5.4-2.7S46.9,49.3,46.9,52.3z"/>
    <path d="M37.9,63c-3.2,0-3.9-2.1-3.9-2.2c-0.1-0.3,0.1-0.5,0.3-0.6c0.3-0.1,0.5,0.1,0.6,0.3c0,0.1,0.5,1.5,2.9,1.5   c2.2,0,2.7-1.4,2.8-1.7V57c0-0.3,0.2-0.5,0.5-0.5s0.5,0.2,0.5,0.5v3.4c0,0,0,0.1,0,0.1C41.6,61.4,40.5,63,37.9,63z"/>
    <path d="M44.9,63c-2.9,0-4-2.3-4.1-2.4c-0.1-0.2,0-0.5,0.2-0.7c0.2-0.1,0.5,0,0.7,0.2l0,0c0,0.1,1,1.8,3.2,1.8   c2.2,0,3.3-2.1,3.3-2.2c0.1-0.2,0.4-0.4,0.7-0.2c0.2,0.1,0.4,0.4,0.2,0.7C49.1,60.4,47.8,63,44.9,63z"/>
    <path d="M41.5,66.4c-0.1,0-0.1,0-0.2,0c-1.3,0-2.1-0.5-2.6-1.2c-0.8-1.2,0-2.9,0-3c0.1-0.3,0.4-0.4,0.7-0.3   c0.3,0.1,0.4,0.4,0.3,0.7c-0.2,0.4-0.5,1.4,0,2.1c0.3,0.5,0.9,0.7,1.8,0.7c0.9,0,1.5-0.2,1.9-0.6c0.6-0.8,0.2-2.2,0.2-2.2   c-0.1-0.3,0.1-0.5,0.3-0.6c0.3-0.1,0.5,0.1,0.6,0.3c0,0.1,0.6,1.9-0.4,3.1C43.4,66,42.6,66.4,41.5,66.4z"/>
    <path d="M66.7,24.6c-4.6,0.8-7.6,3.6-7.3,10.1c1.4,5.5,4.7,14.3,4.7,14.3s3.9,7.9,5.7,8.1c3.4-2.7,5.3-6.7,6-11.9   C77.7,34.9,77.8,26,66.7,24.6z"/>
    <path d="M71.3,60.6c-0.1,0-0.2,0-0.3-0.1c-0.2-0.1-0.2-0.4-0.1-0.6c1.7-3.3,2.5-6,2.7-8.5c0-0.1,0.1-0.2,0.1-0.3l2.7-2.7   c1.5-1.5,3.3-4.7,4.6-7c1.6-2.8,1.9-3.3,2.4-3.4c0.2,0,0.4,0.1,0.5,0.2v0c0.8,1,0,10.6-2.8,13.9c-2.8,3.3-9.2,8.1-9.5,8.3   C71.5,60.5,71.4,60.6,71.3,60.6z M74.6,51.6c-0.2,2.1-0.8,4.2-1.9,6.8c2.1-1.7,5.8-4.7,7.7-6.9c2.2-2.6,2.9-9.5,2.8-11.9   c-0.4,0.6-0.9,1.5-1.3,2.3c-1.4,2.5-3.1,5.6-4.7,7.2L74.6,51.6z"/>
    <path d="M83.5,38.6c-0.8,0-4.3,7.2-6.7,10.2c0.4,1.6,2,2.5,4,3.1C83.1,48.4,84.3,38.6,83.5,38.6z"/>
    <path d="M42.6,79.4c-0.3,0-0.5,0-0.5,0c-0.2,0-0.4-0.2-0.5-0.4c-0.3-2.2-2.4-5.7-2.4-5.7c-0.1-0.2-0.1-0.4,0.1-0.6   c0.1-0.2,0.4-0.2,0.6-0.1c1.9,0.9,3.8,1.4,5.7,1.6c0.1,0,0.6,0.1,1,0.6C47,75.2,47,76,46.8,77C46.3,79.1,43.7,79.4,42.6,79.4z    M42.6,78.4c0.9,0,2.9-0.1,3.3-1.6c0.2-0.7,0.1-1.2-0.1-1.5c-0.1-0.2-0.3-0.2-0.3-0.2c0,0,0,0,0,0c-1.5-0.2-3-0.6-4.6-1.2   C41.4,75.1,42.3,76.9,42.6,78.4z"/>
    <path d="M67,77.5c-0.2,0-0.3-0.1-0.4-0.2c-0.1-0.1-0.1-0.3-0.1-0.4c0.9-3.1,1-6.8,0.5-11.4c0-0.1,0-0.3,0.1-0.4l3.1-4.1   c0.1-0.2,0.4-0.2,0.6-0.2c0.2,0.1,0.3,0.3,0.3,0.5v9.6c0.7,0.3,2.1,1,2.7,2.2c0.3,0.6,0.2,1.2,0,1.8c-0.9,2-2.8,1.8-3.8,1.6   c-0.1,0-0.3,0-0.4,0C68.6,77.4,67.1,77.5,67,77.5z M68.1,65.5c0.5,4.3,0.3,7.9-0.4,10.9c0.4-0.1,0.9-0.3,1.2-0.6   c0.1-0.1,0.1-0.1,0.2-0.1c0.3-0.1,0.6-0.1,1,0c1.2,0.1,2.2,0.2,2.8-1.1c0.2-0.4,0.2-0.7,0-1c-0.4-0.9-1.9-1.6-2.4-1.8   c-0.2-0.1-0.3-0.3-0.3-0.5v-8.5L68.1,65.5z"/>
  </g>
</svg>