<?xml version="1.0" encoding="utf-8"?>
<svg viewBox="154.856 75.511 181.572 158.026" xmlns="http://www.w3.org/2000/svg">
  <path d="M 243.454 75.52 C 251.09 75.36 267.986 77.311 279.543 87.023 C 290.579 96.297 296.455 113.294 296.798 115.551 C 297.103 117.556 296.494 128.565 300 135.701 C 301.25 138.246 307.539 143.546 311.728 150.696 C 314.097 154.739 317.576 162.474 318.551 169.68 C 318.946 172.601 318.73 183.447 313.336 192.619 C 307.642 202.3 296.579 210.28 290.023 211.553 C 281.977 213.116 272.492 213.718 263.186 214.416 C 249.224 215.462 220.853 216.466 201.849 212.409 C 192.128 210.333 185.085 203.508 183.203 201.78 C 181.422 200.145 175.715 193.553 173.1 186.04 C 172.757 185.053 171.046 177.052 172.554 168.925 C 173.205 165.416 174.758 155.027 180.447 147.357 C 180.724 146.984 187.122 139.857 187.122 139.857 L 193.205 132.036 L 193.076 125.158 C 193.665 120.605 192.839 115.798 193.016 114.606 C 193.863 108.882 200 98.688 200 98.688 C 200 98.688 208.351 87.519 219.469 80.978 C 227.429 76.295 237.61 75.642 243.454 75.52 Z" style="stroke: rgb(0, 0, 0); fill: rgb(245, 245, 244);"/>
  <text x="183.206" y="184.16" style="white-space: pre; fill: rgb(51, 51, 51); font-family: sans-serif; font-size: 24px;"> </text>
  <path d="M 258.454 124.38 C 252.531 127.726 248.916 142.421 248.916 142.421 C 248.916 142.421 247.78 152.197 247.974 157.095 C 248.183 162.372 248.473 168.849 250.236 172.775 C 252.256 177.273 256.423 180.911 260.855 183.073 C 266.404 185.78 273.387 187.688 279.202 185.613 C 288.804 182.187 300 174.126 300 163.187 C 300 151.121 281.835 128.149 277.471 125.445 C 272.222 122.192 263.982 121.257 258.454 124.38 Z" style="stroke: rgb(0, 0, 0); fill: rgb(170, 102, 8);"/>
  <path d="M 273.27 82.274 L 278.864 86.004 C 278.864 86.004 284.907 91.591 289.178 98.315 C 293.235 104.704 295.52 112.229 295.834 112.857 C 296.148 113.485 297.361 119.884 297.838 125.659 C 298.234 130.463 297.929 134.867 297.929 134.867 L 303.577 140.043 C 303.577 140.043 310.385 149.912 311.124 150.898 C 312.752 153.068 314.523 155.684 315.413 158.357 C 316.135 160.522 318.024 167.122 318.024 167.122 C 319.067 168.548 325.943 168.523 330.5 164.888 C 334.117 162.002 335.624 156.042 336.204 152.419 C 337.419 144.823 333.334 135.994 332.66 134.031 C 331.128 129.573 324.141 117.104 317.017 107.585 C 315.664 105.778 306.546 93.612 296.057 86.643 C 291.273 83.465 284.4 79.895 278.85 79.18 C 273.605 78.503 269.541 80.596 269.541 80.596 L 273.27 82.274 Z" style="stroke: rgb(0, 0, 0); fill: rgb(170, 102, 8);"/>
  <path d="M 222.732 79.045 L 217.797 81.553 C 217.797 81.553 210.818 86.684 207.715 89.882 C 203.854 93.861 197.767 102.467 197.481 103.183 C 196.13 106.56 193.432 115.706 193.432 115.706 C 193.432 115.706 193.04 120.292 193.183 124.903 C 193.282 128.085 194.15 131.279 193.484 132.987 C 192.271 136.102 183.406 142.594 179.309 149.796 C 177.466 153.037 174.53 161.609 171.942 165.831 C 170.845 167.621 170.215 167.522 169.099 167.7 C 166.23 168.156 162.686 166.615 160.536 165.506 C 155.899 163.116 155.584 155.705 155.048 152.102 C 153.98 144.92 157.727 136.764 157.727 136.764 C 157.727 136.764 161.258 127.126 163.684 122.624 C 167.239 116.028 176.188 103.943 176.188 103.943 C 176.188 103.943 188.318 89.89 196.017 84.932 C 200.466 82.067 205.49 79.527 210.76 79.045 C 214.081 78.741 222.732 79.045 222.732 79.045 Z" style="stroke: rgb(0, 0, 0); fill: rgb(173, 107, 9);"/>
  <path d="M 211.235 150.762 C 209.214 152.891 207.444 158.711 207.444 158.711 L 207.376 166.556 C 207.376 166.556 208.084 172.696 209.286 174.611 C 210.328 176.271 212.297 177.869 214.254 177.758 C 217.415 177.579 220.176 174.603 221.655 171.803 C 224.088 167.198 224.136 161.284 222.888 156.227 C 222.059 152.867 220.697 148.322 217.349 147.447 C 215.106 146.861 212.831 149.081 211.235 150.762 Z" style="stroke: rgb(0, 0, 0);"/>
  <path d="M 233.873 186.04 C 232.351 187.446 231.74 189.855 232.124 191.836 C 232.646 194.529 234.243 194.915 237.275 198.256 C 237.275 198.256 239.383 202.006 241.233 202.767 C 244.15 203.967 249.981 202.797 250.674 202.105 C 252.172 200.607 253.626 198.49 255.146 196.971 C 255.3 196.817 259.776 189.142 257.389 186.04 C 255.759 183.921 247.319 184.052 247.319 184.052 L 238.252 184.88 C 238.252 184.88 234.865 185.124 233.873 186.04 Z" style="stroke: rgb(0, 0, 0);"/>
  <path d="M 239.643 207.516 C 237.496 207.968 231.514 209.123 229.865 213.48 C 228.003 218.401 229.091 223.803 231.811 227.764 C 234.032 230.999 237.49 232.871 242.127 233.436 C 247.306 234.067 253.038 231.577 254.559 230.473 C 257.008 228.694 258.691 225.599 259.519 223.386 C 260.3 221.3 261.811 215.897 260.172 212.905 C 258.184 209.275 252.741 208.179 250.858 207.89 C 250.75 207.873 244.903 206.41 239.643 207.516 Z" style="stroke: rgb(0, 0, 0); fill: rgb(233, 139, 154);"/>
  <path d="M 269.437 147.387 C 266.135 149.721 265.922 154.835 265.48 158.854 C 265.26 160.852 265.846 164.282 266.194 166.058 C 266.331 166.756 266.431 167.199 266.431 167.199 L 268.755 174.611 C 268.755 174.611 272.739 178.285 275.014 177.758 C 278.994 176.837 280.781 172.806 282.432 168.001 C 284.023 163.372 282.97 158.708 282.358 156.227 C 281.529 152.867 279.842 149.13 276.819 147.447 C 274.669 146.25 271.447 145.967 269.437 147.387 Z" style="stroke: rgb(0, 0, 0);"/>
</svg>